<svg width="26" height="32" viewBox="0 0 26 32" fill="none" xmlns="http://www.w3.org/2000/svg">
    <g clip-path="url(#clip0_74306_38860)">
        <path
            d="M7.25 3.8252L8.09115 13.4985C8.18102 14.532 9.04622 15.3252 10.0836 15.3252H14.9164C15.9538 15.3252 16.819 14.532 16.9088 13.4985L17.75 3.8252"
            stroke="#AE1100" stroke-width="1.5" stroke-linecap="round" stroke-linejoin="round" />
        <path
            d="M10.25 3.5752V2.8252C10.25 1.72063 11.1454 0.825195 12.25 0.825195H12.75C13.8546 0.825195 14.75 1.72063 14.75 2.8252V3.5752"
            stroke="#AE1100" stroke-width="1.5" stroke-linecap="round" stroke-linejoin="round" />
        <path d="M5.5 3.8252H19.5" stroke="#AE1100" stroke-width="1.5" stroke-linecap="round" stroke-linejoin="round" />
    </g>
    <path
        d="M1.604 28.0752C1.30533 28.0752 1.156 27.9259 1.156 27.6272V22.8832C1.156 22.5845 1.30533 22.4352 1.604 22.4352H4.524C4.75333 22.4352 4.868 22.5445 4.868 22.7632C4.868 22.9925 4.75333 23.1072 4.524 23.1072H1.956V24.8752H4.348C4.57733 24.8752 4.692 24.9872 4.692 25.2112C4.692 25.4352 4.57733 25.5472 4.348 25.5472H1.956V27.4032H4.524C4.75333 27.4032 4.868 27.5152 4.868 27.7392C4.868 27.9632 4.75333 28.0752 4.524 28.0752H1.604ZM5.91494 28.1232C5.77094 28.1232 5.66694 28.0645 5.60294 27.9472C5.54427 27.8299 5.5736 27.6965 5.69094 27.5472L6.89094 26.0592L5.77894 24.6832C5.65627 24.5392 5.62694 24.4085 5.69094 24.2912C5.75494 24.1739 5.85627 24.1152 5.99494 24.1152C6.09627 24.1152 6.17894 24.1339 6.24294 24.1712C6.31227 24.2032 6.37627 24.2592 6.43494 24.3392L7.35494 25.5072L8.28294 24.3392C8.3416 24.2592 8.40294 24.2032 8.46694 24.1712C8.53094 24.1339 8.6136 24.1152 8.71494 24.1152C8.8536 24.1152 8.95494 24.1739 9.01894 24.2912C9.08294 24.4085 9.0536 24.5419 8.93094 24.6912L7.81894 26.0672L9.01894 27.5472C9.13627 27.6912 9.16294 27.8245 9.09894 27.9472C9.04027 28.0645 8.93894 28.1232 8.79494 28.1232C8.61894 28.1232 8.47227 28.0485 8.35494 27.8992L7.34694 26.6352L6.34694 27.8992C6.28827 27.9739 6.22694 28.0299 6.16294 28.0672C6.09894 28.1045 6.01627 28.1232 5.91494 28.1232ZM11.6786 28.1472C11.2786 28.1472 10.932 28.0645 10.6386 27.8992C10.3506 27.7285 10.1266 27.4912 9.96663 27.1872C9.80663 26.8779 9.72663 26.5152 9.72663 26.0992C9.72663 25.4805 9.90263 24.9925 10.2546 24.6352C10.6066 24.2779 11.0813 24.0992 11.6786 24.0992C11.8653 24.0992 12.06 24.1285 12.2626 24.1872C12.4706 24.2405 12.6626 24.3312 12.8386 24.4592C12.924 24.5125 12.972 24.5819 12.9826 24.6672C12.9986 24.7472 12.9853 24.8245 12.9426 24.8992C12.9053 24.9685 12.8493 25.0165 12.7746 25.0432C12.7 25.0645 12.6146 25.0485 12.5186 24.9952C12.3906 24.9045 12.26 24.8405 12.1266 24.8032C11.9933 24.7605 11.8653 24.7392 11.7426 24.7392C11.364 24.7392 11.0706 24.8592 10.8626 25.0992C10.66 25.3339 10.5586 25.6699 10.5586 26.1072C10.5586 26.5445 10.66 26.8885 10.8626 27.1392C11.0706 27.3845 11.364 27.5072 11.7426 27.5072C11.8653 27.5072 11.9906 27.4885 12.1186 27.4512C12.252 27.4139 12.3853 27.3499 12.5186 27.2592C12.6146 27.2059 12.6973 27.1925 12.7666 27.2192C12.8413 27.2459 12.8946 27.2965 12.9266 27.3712C12.964 27.4405 12.9746 27.5179 12.9586 27.6032C12.948 27.6832 12.9 27.7499 12.8146 27.8032C12.644 27.9259 12.4573 28.0139 12.2546 28.0672C12.0573 28.1205 11.8653 28.1472 11.6786 28.1472ZM14.949 28.1472C14.533 28.1472 14.2183 28.0272 14.005 27.7872C13.797 27.5472 13.693 27.1952 13.693 26.7312V22.7872C13.693 22.5152 13.8263 22.3792 14.093 22.3792C14.365 22.3792 14.501 22.5152 14.501 22.7872V26.6832C14.501 27.2112 14.7143 27.4752 15.141 27.4752C15.189 27.4752 15.2317 27.4725 15.269 27.4672C15.3063 27.4619 15.3437 27.4592 15.381 27.4592C15.445 27.4539 15.4903 27.4725 15.517 27.5152C15.5437 27.5525 15.557 27.6325 15.557 27.7552C15.557 27.9739 15.4557 28.0992 15.253 28.1312C15.1997 28.1365 15.1463 28.1392 15.093 28.1392C15.045 28.1445 14.997 28.1472 14.949 28.1472ZM17.5303 28.1472C16.5863 28.1472 16.1143 27.6219 16.1143 26.5712V24.5232C16.1143 24.2512 16.2476 24.1152 16.5143 24.1152C16.7863 24.1152 16.9223 24.2512 16.9223 24.5232V26.5792C16.9223 26.8939 16.9863 27.1259 17.1143 27.2752C17.2423 27.4245 17.445 27.4992 17.7223 27.4992C18.0263 27.4992 18.2716 27.3979 18.4583 27.1952C18.6503 26.9925 18.7463 26.7205 18.7463 26.3792V24.5232C18.7463 24.2512 18.8823 24.1152 19.1543 24.1152C19.421 24.1152 19.5543 24.2512 19.5543 24.5232V27.7232C19.5543 27.9952 19.4236 28.1312 19.1623 28.1312C18.901 28.1312 18.7703 27.9952 18.7703 27.7232V27.4512C18.6423 27.6805 18.4716 27.8539 18.2583 27.9712C18.045 28.0885 17.8023 28.1472 17.5303 28.1472ZM21.093 23.2992C20.933 23.2992 20.8077 23.2592 20.717 23.1792C20.6317 23.0992 20.589 22.9872 20.589 22.8432C20.589 22.5392 20.757 22.3872 21.093 22.3872C21.429 22.3872 21.597 22.5392 21.597 22.8432C21.597 23.1472 21.429 23.2992 21.093 23.2992ZM21.093 28.1232C20.8263 28.1232 20.693 27.9765 20.693 27.6832V24.5632C20.693 24.2752 20.8263 24.1312 21.093 24.1312C21.365 24.1312 21.501 24.2752 21.501 24.5632V27.6832C21.501 27.9765 21.365 28.1232 21.093 28.1232ZM23.0463 28.1312C22.7743 28.1312 22.6383 27.9952 22.6383 27.7232V24.5232C22.6383 24.2512 22.769 24.1152 23.0303 24.1152C23.2916 24.1152 23.4223 24.2512 23.4223 24.5232V24.8672C23.529 24.6272 23.689 24.4432 23.9023 24.3152C24.121 24.1872 24.385 24.1125 24.6943 24.0912C24.8916 24.0752 24.9983 24.1819 25.0143 24.4112C25.0356 24.6459 24.921 24.7739 24.6703 24.7952L24.5183 24.8112C23.809 24.8805 23.4543 25.2459 23.4543 25.9072V27.7232C23.4543 27.9952 23.3183 28.1312 23.0463 28.1312Z"
        fill="#AE1100" />
    <defs>
        <clipPath id="clip0_74306_38860">
            <rect width="17" height="16" fill="white" transform="translate(4.5 0.0751953)" />
        </clipPath>
    </defs>
</svg>