<svg width="23" height="32" viewBox="0 0 23 32" fill="none" xmlns="http://www.w3.org/2000/svg">
    <g clip-path="url(#clip0_74306_38855)">
        <path
            d="M4.25 15.325L8.5 14.325L17.7929 5.03216C18.1834 4.64163 18.1834 4.00847 17.7929 3.61794L15.9571 1.78216C15.5666 1.39163 14.9334 1.39163 14.5429 1.78216L5.25 11.075L4.25 15.325Z"
            stroke="#747488" stroke-width="1.5" stroke-linecap="round" stroke-linejoin="round" />
        <path d="M18.75 15.3252H13.25" stroke="#747488" stroke-width="1.5" stroke-linecap="round"
            stroke-linejoin="round" />
    </g>
    <path
        d="M1.604 28.0752C1.30533 28.0752 1.156 27.9259 1.156 27.6272V22.8832C1.156 22.5845 1.30533 22.4352 1.604 22.4352H4.524C4.75333 22.4352 4.868 22.5445 4.868 22.7632C4.868 22.9925 4.75333 23.1072 4.524 23.1072H1.956V24.8752H4.348C4.57733 24.8752 4.692 24.9872 4.692 25.2112C4.692 25.4352 4.57733 25.5472 4.348 25.5472H1.956V27.4032H4.524C4.75333 27.4032 4.868 27.5152 4.868 27.7392C4.868 27.9632 4.75333 28.0752 4.524 28.0752H1.604ZM7.23569 28.1472C6.89435 28.1472 6.59302 28.0672 6.33169 27.9072C6.07569 27.7419 5.87569 27.5072 5.73169 27.2032C5.58769 26.8992 5.51569 26.5392 5.51569 26.1232C5.51569 25.7072 5.58769 25.3499 5.73169 25.0512C5.87569 24.7472 6.07569 24.5125 6.33169 24.3472C6.58769 24.1819 6.88902 24.0992 7.23569 24.0992C7.52902 24.0992 7.79035 24.1632 8.01969 24.2912C8.24902 24.4192 8.41969 24.5925 8.53169 24.8112V22.7872C8.53169 22.5152 8.66502 22.3792 8.93169 22.3792C9.20369 22.3792 9.33969 22.5152 9.33969 22.7872V27.7232C9.33969 27.9952 9.20635 28.1312 8.93969 28.1312C8.67302 28.1312 8.53969 27.9952 8.53969 27.7232V27.4192C8.42235 27.6432 8.24902 27.8219 8.01969 27.9552C7.79035 28.0832 7.52902 28.1472 7.23569 28.1472ZM7.44369 27.5232C7.77435 27.5232 8.04102 27.4032 8.24369 27.1632C8.44635 26.9232 8.54769 26.5765 8.54769 26.1232C8.54769 25.6699 8.44635 25.3259 8.24369 25.0912C8.04102 24.8512 7.77435 24.7312 7.44369 24.7312C7.10769 24.7312 6.83835 24.8512 6.63569 25.0912C6.43302 25.3259 6.33169 25.6699 6.33169 26.1232C6.33169 26.5765 6.43302 26.9232 6.63569 27.1632C6.83835 27.4032 7.10769 27.5232 7.44369 27.5232ZM10.8743 23.2992C10.7143 23.2992 10.5889 23.2592 10.4983 23.1792C10.4129 23.0992 10.3703 22.9872 10.3703 22.8432C10.3703 22.5392 10.5383 22.3872 10.8743 22.3872C11.2103 22.3872 11.3783 22.5392 11.3783 22.8432C11.3783 23.1472 11.2103 23.2992 10.8743 23.2992ZM10.8743 28.1232C10.6076 28.1232 10.4743 27.9765 10.4743 27.6832V24.5632C10.4743 24.2752 10.6076 24.1312 10.8743 24.1312C11.1463 24.1312 11.2823 24.2752 11.2823 24.5632V27.6832C11.2823 27.9765 11.1463 28.1232 10.8743 28.1232ZM14.0836 28.1472C13.5929 28.1472 13.2276 28.0219 12.9876 27.7712C12.7476 27.5205 12.6276 27.1579 12.6276 26.6832V24.7952H12.1476C11.9236 24.7952 11.8116 24.6912 11.8116 24.4832C11.8116 24.2752 11.9236 24.1712 12.1476 24.1712H12.6276V23.3472C12.6276 23.0752 12.7636 22.9392 13.0356 22.9392C13.3022 22.9392 13.4356 23.0752 13.4356 23.3472V24.1712H14.3716C14.5956 24.1712 14.7076 24.2752 14.7076 24.4832C14.7076 24.6912 14.5956 24.7952 14.3716 24.7952H13.4356V26.6192C13.4356 26.9019 13.4942 27.1152 13.6116 27.2592C13.7342 27.4032 13.9316 27.4752 14.2036 27.4752C14.2996 27.4752 14.3822 27.4672 14.4516 27.4512C14.5209 27.4299 14.5822 27.4165 14.6356 27.4112C14.6942 27.4112 14.7422 27.4325 14.7796 27.4752C14.8169 27.5125 14.8356 27.5872 14.8356 27.6992C14.8356 27.7845 14.8196 27.8619 14.7876 27.9312C14.7609 27.9952 14.7102 28.0379 14.6356 28.0592C14.5716 28.0859 14.4836 28.1072 14.3716 28.1232C14.2649 28.1392 14.1689 28.1472 14.0836 28.1472ZM16.5894 28.1472C16.3174 28.1472 16.0748 28.0939 15.8614 27.9872C15.6481 27.8805 15.4774 27.7365 15.3494 27.5552C15.2268 27.3739 15.1654 27.1685 15.1654 26.9392C15.1654 26.6512 15.2374 26.4245 15.3814 26.2592C15.5308 26.0939 15.7734 25.9739 16.1094 25.8992C16.4508 25.8245 16.9094 25.7872 17.4854 25.7872H17.7574V25.5792C17.7574 25.2752 17.6934 25.0565 17.5654 24.9232C17.4374 24.7899 17.2268 24.7232 16.9334 24.7232C16.7628 24.7232 16.5841 24.7445 16.3974 24.7872C16.2161 24.8299 16.0268 24.9019 15.8294 25.0032C15.7174 25.0565 15.6241 25.0645 15.5494 25.0272C15.4801 24.9899 15.4321 24.9312 15.4054 24.8512C15.3788 24.7712 15.3814 24.6885 15.4134 24.6032C15.4454 24.5179 15.5121 24.4539 15.6134 24.4112C15.8481 24.3045 16.0801 24.2272 16.3094 24.1792C16.5388 24.1259 16.7548 24.0992 16.9574 24.0992C17.4908 24.0992 17.8854 24.2272 18.1414 24.4832C18.3974 24.7339 18.5254 25.1285 18.5254 25.6672V27.7232C18.5254 27.9952 18.4001 28.1312 18.1494 28.1312C17.8934 28.1312 17.7654 27.9952 17.7654 27.7232V27.4272C17.6694 27.6512 17.5201 27.8272 17.3174 27.9552C17.1148 28.0832 16.8721 28.1472 16.5894 28.1472ZM16.7494 27.5712C17.0374 27.5712 17.2774 27.4699 17.4694 27.2672C17.6614 27.0645 17.7574 26.8085 17.7574 26.4992V26.2832H17.4934C17.1041 26.2832 16.7974 26.3019 16.5734 26.3392C16.3548 26.3765 16.1974 26.4405 16.1014 26.5312C16.0108 26.6165 15.9654 26.7365 15.9654 26.8912C15.9654 27.0939 16.0348 27.2592 16.1734 27.3872C16.3121 27.5099 16.5041 27.5712 16.7494 27.5712ZM20.0463 28.1312C19.7743 28.1312 19.6383 27.9952 19.6383 27.7232V24.5232C19.6383 24.2512 19.769 24.1152 20.0303 24.1152C20.2916 24.1152 20.4223 24.2512 20.4223 24.5232V24.8672C20.529 24.6272 20.689 24.4432 20.9023 24.3152C21.121 24.1872 21.385 24.1125 21.6943 24.0912C21.8916 24.0752 21.9983 24.1819 22.0143 24.4112C22.0356 24.6459 21.921 24.7739 21.6703 24.7952L21.5183 24.8112C20.809 24.8805 20.4543 25.2459 20.4543 25.9072V27.7232C20.4543 27.9952 20.3183 28.1312 20.0463 28.1312Z"
        fill="#747488" />
    <defs>
        <clipPath id="clip0_74306_38855">
            <rect width="16" height="16" fill="white" transform="translate(3.5 0.0751953)" />
        </clipPath>
    </defs>
</svg>